#!OML:ASF F:\VICON\USERDATA\INSTALL\rory3\rory3.ASF
:FULLY-SPECIFIED
:DEGREES
618
root -11.0336 17.6885 11.5987 -2.6154 -11.0705 1.81868
lowerback 14.9695 2.16607 -4.48458
upperback 1.77127 2.09317 -0.359701
thorax -6.65808 1.12753 1.7255
lowerneck -13.1287 -1.66025 -10.2111
upperneck 42.0335 -0.572019 2.97842
head 17.929 -1.51685 3.11636
rclavicle -6.75868e-015 6.16232e-015
rhumerus -36.9745 19.3825 -99.2837
rradius 88.9642
rwrist -19.4169
rhand -15.5383 15.1426
rfingers 7.12502
rthumb 10.6455 -14.5677
lclavicle -6.75868e-015 6.16232e-015
lhumerus -38.7538 -28.5444 101.22
lradius 82.7637
lwrist -1.46592
lhand -31.0334 25.1232
lfingers 7.12502
lthumb -4.31537 55.0592
rfemur -21.1294 9.41995 10.6895
rtibia 36.4435
rfoot -17.972 15.6621
rtoes -14.3264
lfemur -5.37457 -3.31262 -23.1915
ltibia 24.0833
lfoot -13.068 -15.5931
ltoes 5.60894
619
root -11.0644 17.6861 11.6126 -2.53442 -10.6204 1.74918
lowerback 15.0894 2.19931 -4.41847
upperback 1.74118 2.14478 -0.307704
thorax -6.75959 1.15375 1.7285
lowerneck -12.8711 -1.67145 -10.4121
upperneck 42 -0.572252 3.04261
head 17.8449 -1.53465 3.18081
rclavicle 2.06363e-014 8.84592e-015
rhumerus -37.17 19.537 -99.2086
rradius 89.1225
rwrist -19.5259
rhand -15.6731 15.1068
rfingers 7.12502
rthumb 10.5155 -14.6102
lclavicle 2.06363e-014 8.84592e-015
lhumerus -38.8675 -28.7024 101.431
lradius 82.8
lwrist -0.896947
lhand -30.7303 25.5738
lfingers 7.12502
lthumb -4.0227 55.5156
rfemur -21.0223 10.3613 10.4884
rtibia 35.1502
rfoot -17.8709 17.2609
rtoes -15.2096
lfemur -5.53071 -3.47221 -23.0268
ltibia 24.3489
lfoot -13.2383 -15.8604
ltoes 5.81151
620
root -11.0977 17.6857 11.6229 -2.42347 -10.1458 1.58338
lowerback 15.2357 2.20506 -4.25953
upperback 1.75352 2.17472 -0.263027
thorax -6.82496 1.16544 1.67595
lowerneck -12.8324 -1.64999 -10.4042
upperneck 42.001 -0.509446 2.98858
head 17.8294 -1.51101 3.16621
rclavicle 3.4601e-014 -5.86415e-015
rhumerus -37.1708 19.7016 -99.1449
rradius 89.1855
rwrist -19.5688
rhand -15.7456 15.0808
rfingers 7.12502
rthumb 10.4456 -14.6397
lclavicle 3.4601e-014 -5.86415e-015
lhumerus -38.8278 -28.8014 101.484
lradius 82.7858
lwrist -0.469381
lhand -30.4273 25.7314
lfingers 7.12502
lthumb -3.73007 55.6785
rfemur -20.9078 11.3217 10.3687
rtibia 34.0052
rfoot -17.1869 18.605
rtoes -13.3882
lfemur -5.73187 -3.5949 -22.7355
ltibia 24.5697
lfoot -13.197 -16.2885
ltoes 6.57858
621
root -11.1312 17.6839 11.6406 -2.32089 -9.57939 1.53566
lowerback 15.2367 2.19676 -4.19664
upperback 1.84246 2.17644 -0.262874
thorax -6.72782 1.16196 1.64207
lowerneck -12.9805 -1.63425 -10.2546
upperneck 42.0751 -0.423586 2.8154
head 17.9036 -1.47456 3.07816
rclavicle -1.08089e-015 -5.76476e-015
rhumerus -36.9978 19.7644 -99.0532
rradius 89.2343
rwrist -19.5676
rhand -15.6891 15.0351
rfingers 7.12502
rthumb 10.5001 -14.6826
lclavicle -1.08089e-015 -5.76476e-015
lhumerus -38.562 -29.0522 101.408
lradius 82.6399
lwrist 0.095965
lhand -29.9553 25.739
lfingers 7.12502
lthumb -3.27428 55.6936
rfemur -20.7356 11.9131 10.1789
rtibia 33.0206
rfoot -16.8602 19.7224
rtoes -13.0697
lfemur -5.89986 -3.77121 -22.5871
ltibia 24.7532
lfoot -13.1076 -16.7919
ltoes 7.50129
622
root -11.1654 17.6818 11.6637 -2.27676 -9.02097 1.43815
lowerback 15.2432 2.20913 -4.08309
upperback 1.91896 2.21444 -0.24746
thorax -6.64805 1.1756 1.58772
lowerneck -13.0053 -1.6368 -10.1711
upperneck 42.17 -0.403391 2.74243
head 17.9646 -1.46241 3.03715
rclavicle 1.799e-014 -1.35174e-014
rhumerus -37.0239 19.7853 -98.9736
rradius 89.4272
rwrist -19.6704
rhand -15.6876 15.0815
rfingers 7.12502
rthumb 10.5015 -14.6362
lclavicle 1.799e-014 -1.35174e-014
lhumerus -38.443 -29.374 101.398
lradius 82.6214
lwrist 0.694673
lhand -29.2629 25.9386
lfingers 7.12502
lthumb -2.60559 55.9024
rfemur -20.5805 12.4107 10.1361
rtibia 32.2124
rfoot -16.2803 20.8821
rtoes -12.8786
lfemur -5.959 -4.05742 -22.3925
ltibia 24.9208
lfoot -13.122 -17.0925
ltoes 7.98397
623
root -11.2022 17.6773 11.6822 -2.23461 -8.50638 1.3542
lowerback 15.2346 2.24786 -4.04874
upperback 2.02245 2.28076 -0.154862
thorax -6.53904 1.20533 1.65511
lowerneck -13.0443 -1.65679 -10.3001
upperneck 42.2334 -0.36582 2.73485
head 18.0136 -1.46668 3.06751
rclavicle 2.84386e-014 -3.8763e-015
rhumerus -36.8438 19.9792 -98.7474
rradius 89.4171
rwrist -19.883
rhand -15.622 15.273
rfingers 7.12502
rthumb 10.5648 -14.4415
lclavicle 2.84386e-014 -3.8763e-015
lhumerus -38.2886 -29.5668 101.489
lradius 82.6732
lwrist 1.28831
lhand -28.5212 25.9941
lfingers 7.12502
lthumb -1.88931 55.9655
rfemur -20.5072 12.846 10.1422
rtibia 31.5779
rfoot -15.0956 22.0328
rtoes -12.3228
lfemur -6.02197 -4.23115 -22.1944
ltibia 25.0537
lfoot -13.2057 -17.4338
ltoes 8.16461
624
root -11.2429 17.6715 11.6982 -2.17134 -7.92876 1.364
lowerback 15.2395 2.26676 -4.14109
upperback 2.09326 2.2978 -0.0738071
thorax -6.47397 1.21507 1.79104
lowerneck -13.0053 -1.62824 -10.2833
upperneck 42.2394 -0.245823 2.57106
head 17.9975 -1.43262 3.01007
rclavicle -2.65874e-014 1.0138e-014
rhumerus -36.6076 20.3589 -98.5247
rradius 89.3751
rwrist -20.044
rhand -15.6996 15.2553
rfingers 7.12502
rthumb 10.4899 -14.463
lclavicle -2.65874e-014 1.0138e-014
lhumerus -38.1507 -29.6968 101.588
lradius 82.6948
lwrist 1.82242
lhand -27.9629 25.8048
lfingers 7.12502
lthumb -1.3501 55.7803
rfemur -20.4175 13.0208 10.105
rtibia 31.089
rfoot -13.362 23.1457
rtoes -9.61551
lfemur -6.14123 -4.47083 -22.0861
ltibia 25.1986
lfoot -13.2927 -17.7607
ltoes 7.88778
625
root -11.2824 17.6717 11.7192 -2.09011 -7.30553 1.32605
lowerback 15.2753 2.27605 -4.11812
upperback 2.09184 2.3171 -0.0113644
thorax -6.49816 1.22531 1.8392
lowerneck -12.7603 -1.56671 -10.1397
upperneck 42.1323 -0.113491 2.33156
head 17.8557 -1.37742 2.89158
rclavicle -1.35236e-014 1.04362e-014
rhumerus -36.6971 20.4441 -98.4092
rradius 89.6329
rwrist -20.1746
rhand -15.7086 14.9748
rfingers 7.12502
rthumb 10.4813 -14.7439
lclavicle -1.35236e-014 1.04362e-014
lhumerus -37.9497 -30.0347 101.622
lradius 82.5044
lwrist 2.44266
lhand -27.582 25.4826
lfingers 7.12502
lthumb -0.982168 55.4601
rfemur -20.3096 13.0738 10.1606
rtibia 30.8078
rfoot -11.4168 24.0769
rtoes -4.09394
lfemur -6.26996 -4.72454 -21.9347
ltibia 25.3401
lfoot -13.4015 -18.1125
ltoes 7.87602
626
root -11.322 17.6718 11.7398 -2.00896 -6.68536 1.16543
lowerback 15.2997 2.30295 -3.91102
upperback 2.10206 2.39051 0.0448235
thorax -6.49951 1.25688 1.76591
lowerneck -12.5768 -1.50328 -10.0093
upperneck 42.1492 -0.0399904 2.27914
head 17.8075 -1.32778 2.85777
rclavicle 1.86361e-017 3.50358e-015
rhumerus -36.9588 20.2724 -98.4001
rradius 90.006
rwrist -20.3412
rhand -16.0259 14.9559
rfingers 7.12502
rthumb 10.1751 -14.7781
lclavicle 1.86361e-017 3.50358e-015
lhumerus -37.7622 -30.5247 101.584
lradius 82.3866
lwrist 2.94401
lhand -27.1157 25.0824
lfingers 7.12502
lthumb -0.531789 55.0615
rfemur -20.1607 13.0053 10.416
rtibia 30.7431
rfoot -9.9981 24.5661
rtoes 1.12625
lfemur -6.36347 -4.96432 -21.6405
ltibia 25.4377
lfoot -13.555 -18.3829
ltoes 7.477
627
root -11.3624 17.6702 11.7601 -1.96048 -6.13347 1.09408
lowerback 15.3175 2.37136 -3.84834
upperback 2.14225 2.49692 0.120464
thorax -6.47372 1.30741 1.78859
lowerneck -12.5478 -1.4674 -10.11
upperneck 42.4553 -0.028592 2.51263
head 17.9797 -1.31496 2.9992
rclavicle -1.14425e-014 -1.20265e-014
rhumerus -37.1044 20.2626 -98.2866
rradius 90.2392
rwrist -20.5616
rhand -16.3147 15.1062
rfingers 7.12502
rthumb 9.89656 -14.6412
lclavicle -1.14425e-014 -1.20265e-014
lhumerus -37.872 -30.7095 101.799
lradius 82.5173
lwrist 3.20703
lhand -26.5228 24.7866
lfingers 7.12502
lthumb 0.0407629 54.7663
rfemur -19.9522 12.7096 10.6618
rtibia 30.8217
rfoot -9.72957 24.5081
rtoes 2.97074
lfemur -6.42655 -5.11406 -21.4427
ltibia 25.5046
lfoot -13.7115 -18.6525
ltoes 6.83357
628
root -11.4001 17.6664 11.779 -1.9165 -5.58096 1.1399
lowerback 15.3756 2.43338 -3.85532
upperback 2.1722 2.57838 0.15516
thorax -6.48066 1.34747 1.81078
lowerneck -12.6067 -1.461 -10.2796
upperneck 42.7803 -0.0705497 2.8411
head 18.1951 -1.32403 3.19213
rclavicle 4.19156e-015 1.4474e-014
rhumerus -37.0993 20.3426 -98.1272
rradius 90.3721
rwrist -20.7309
rhand -16.322 15.3063
rfingers 7.12502
rthumb 9.88955 -14.4414
lclavicle 4.19156e-015 1.4474e-014
lhumerus -38.196 -30.7997 102.152
lradius 82.731
lwrist 3.24091
lhand -26.2581 24.4469
lfingers 7.12502
lthumb 0.296431 54.4265
rfemur -19.7259 12.3845 10.7654
rtibia 30.9667
rfoot -10.0592 23.9381
rtoes 3.38276
lfemur -6.52015 -5.42104 -21.3805
ltibia 25.5777
lfoot -13.6154 -18.9267
ltoes 7.45113
629
root -11.4366 17.6636 11.7964 -1.95249 -5.15318 1.0362
lowerback 15.6116 2.52044 -3.65494
upperback 2.19604 2.71933 0.19094
thorax -6.58629 1.41251 1.69792
lowerneck -12.819 -1.47579 -10.4236
upperneck 43.1388 -0.134148 3.1733
head 18.4795 -1.34002 3.38447
rclavicle -3.03457e-014 -1.32689e-014
rhumerus -37.0195 20.3853 -98.0048
rradius 90.4209
rwrist -20.8617
rhand -16.0654 15.4784
rfingers 7.12502
rthumb 10.137 -14.2574
lclavicle -3.03457e-014 -1.32689e-014
lhumerus -38.5401 -30.9426 102.486
lradius 82.9087
lwrist 3.14763
lhand -25.9488 24.3892
lfingers 7.12502
lthumb 0.595238 54.3681
rfemur -19.4442 12.1038 11.071
rtibia 31.1123
rfoot -10.6062 23.0453
rtoes 3.43409
lfemur -6.49677 -5.69388 -21.1592
ltibia 25.604
lfoot -13.4733 -19.1515
ltoes 8.51813
630
root -11.4739 17.6641 11.8162 -2.05136 -4.83574 0.864259
lowerback 15.9089 2.64214 -3.37729
upperback 2.21314 2.91714 0.221066
thorax -6.73087 1.50326 1.51965
lowerneck -12.9385 -1.48709 -10.5591
upperneck 43.4161 -0.184036 3.44885
head 18.6919 -1.35318 3.54907
rclavicle -9.81499e-015 -9.69075e-016
rhumerus -37.1123 20.3259 -97.9494
rradius 90.6382
rwrist -20.9177
rhand -15.8687 15.4898
rfingers 7.12502
rthumb 10.3268 -14.2367
lclavicle -9.81499e-015 -9.69075e-016
lhumerus -38.6336 -31.2814 102.625
lradius 82.9824
lwrist 3.436
lhand -25.5318 24.6482
lfingers 7.12502
lthumb 0.997939 54.6256
rfemur -19.1002 11.747 11.5347
rtibia 31.1481
rfoot -11.2452 22.0001
rtoes 2.30669
lfemur -6.32966 -5.83987 -20.8569
ltibia 25.5868
lfoot -13.54 -19.3184
ltoes 8.494
631
root -11.511 17.6684 11.8374 -2.06724 -4.32783 0.815967
lowerback 16.0183 2.71858 -3.20053
upperback 2.26837 3.04698 0.245906
thorax -6.731 1.56165 1.41488
lowerneck -13.0469 -1.52752 -10.5827
upperneck 43.6651 -0.219487 3.49825
head 18.8866 -1.37046 3.586
rclavicle 2.93829e-014 -8.39865e-015
rhumerus -37.1827 20.1833 -97.8411
rradius 90.9881
rwrist -20.9405
rhand -15.4035 15.5358
rfingers 7.12502
rthumb 10.7756 -14.1678
lclavicle 2.93829e-014 -8.39865e-015
lhumerus -38.115 -31.8233 102.491
lradius 82.756
lwrist 4.06098
lhand -25.1037 24.9345
lfingers 7.12502
lthumb 1.41143 54.9096
rfemur -18.8027 11.1514 11.8568
rtibia 31.0536
rfoot -11.765 20.9347
rtoes -0.232393
lfemur -6.2728 -6.28085 -20.7009
ltibia 25.5516
lfoot -13.3552 -19.494
ltoes 9.38169
